<?xml version="1.0" standalone="no"?>
<!DOCTYPE svg PUBLIC "-//W3C//DTD SVG 20010904//EN"
 "http://www.w3.org/TR/2001/REC-SVG-20010904/DTD/svg10.dtd">
<svg version="1.0" xmlns="http://www.w3.org/2000/svg"
 width="512.000000pt" height="512.000000pt" viewBox="0 0 512.000000 512.000000"
 preserveAspectRatio="xMidYMid meet">

<g transform="translate(0.000000,512.000000) scale(0.100000,-0.100000)"
fill="#000000" stroke="none">
<path d="M1589 4945 c-175 -43 -327 -176 -389 -341 -12 -32 -26 -95 -31 -139
-5 -44 -9 -389 -9 -767 l0 -688 1348 -2 1347 -3 40 -22 c46 -24 75 -54 101
-103 18 -33 19 -73 22 -685 4 -723 3 -732 -56 -797 -72 -80 63 -72 -1447 -78
l-1350 -5 -3 -285 c-3 -314 6 -426 38 -513 47 -127 156 -244 277 -302 122 -58
63 -56 1530 -53 l1348 3 72 26 c171 63 294 195 350 374 17 57 18 130 18 1485
l0 1425 -660 5 c-730 6 -685 1 -751 72 -73 77 -69 30 -72 756 l-3 652 -832 -1
c-665 0 -843 -3 -888 -14z"/>
<path d="M3470 4277 c0 -614 0 -619 53 -632 12 -3 275 -4 585 -3 l562 3 -600
600 -600 600 0 -568z"/>
<path d="M341 2823 c-21 -26 -21 -30 -19 -670 3 -625 4 -645 22 -659 30 -21
3462 -21 3492 0 18 14 19 34 22 659 2 640 2 644 -19 670 l-20 27 -1729 0
-1729 0 -20 -27z m1056 -174 c70 -27 146 -95 180 -163 26 -52 40 -137 29 -181
-9 -35 -58 -57 -98 -43 -34 12 -42 26 -57 97 -14 66 -41 106 -91 131 -68 35
-148 24 -204 -28 -51 -48 -56 -73 -56 -299 0 -189 2 -210 21 -250 77 -158 308
-114 333 63 11 86 79 122 133 72 18 -17 23 -32 23 -73 0 -228 -255 -386 -469
-290 -71 32 -142 102 -174 173 -20 43 -22 66 -25 279 -4 258 2 299 57 385 81
127 252 181 398 127z m816 7 c9 -7 21 -26 27 -42 17 -50 200 -862 200 -887 0
-33 -43 -70 -80 -70 -52 0 -69 28 -101 168 -16 70 -31 131 -35 136 -3 5 -72 9
-154 9 -147 0 -150 0 -155 -22 -65 -283 -61 -271 -104 -286 -38 -13 -92 12
-102 48 -4 16 30 185 96 475 87 380 106 452 125 467 19 15 41 18 144 18 85 -1
126 -5 139 -14z m832 -16 c64 -31 134 -101 165 -165 25 -49 25 -54 25 -310 0
-246 -1 -263 -22 -307 -33 -71 -103 -141 -176 -173 -56 -26 -75 -29 -208 -33
-165 -5 -211 0 -240 29 -18 18 -19 37 -19 481 l0 462 22 24 c23 23 24 23 213
20 178 -3 193 -5 240 -28z"/>
<path d="M2002 2328 c-23 -101 -42 -186 -42 -190 0 -5 52 -8 115 -8 115 0 115
0 110 23 -3 12 -23 96 -44 187 l-38 165 -29 3 -30 3 -42 -183z"/>
<path d="M2730 2159 l0 -351 108 4 c127 5 171 22 210 81 27 40 27 43 30 246 2
113 0 221 -3 239 -7 40 -59 101 -102 118 -20 9 -72 14 -138 14 l-105 0 0 -351z"/>
</g>
</svg>
