<svg version="1.1" id="Layer_1" xmlns="http://www.w3.org/2000/svg" xmlns:xlink="http://www.w3.org/1999/xlink" x="0px" y="0px"
	 width="100%" viewBox="0 0 500 500" enable-background="new 0 0 500 500" xml:space="preserve">
<path fill="#18305D" opacity="1.000000" stroke="none" 
	d="
M296.000000,501.000000 
	C197.333359,501.000000 99.166710,501.000000 1.000053,501.000000 
	C1.000035,334.333405 1.000035,167.666794 1.000018,1.000142 
	C167.666565,1.000095 334.333130,1.000095 500.999756,1.000047 
	C500.999847,167.666519 500.999847,334.333038 500.999939,500.999786 
	C432.833344,501.000000 364.666656,501.000000 296.000000,501.000000 
M301.357513,266.553406 
	C301.357513,266.553406 301.515747,266.335510 301.200684,266.989471 
	C301.521606,267.647552 301.842560,268.305664 302.346832,269.505432 
	C305.340912,271.495392 305.340912,271.495392 305.840485,268.319672 
	C305.811371,267.896912 305.782257,267.474152 305.915619,266.155548 
	C305.915619,263.145752 305.915619,260.135986 305.915619,257.126190 
	C305.301331,257.102814 304.687073,257.079437 304.072784,257.056061 
	C303.399902,259.670959 302.727020,262.285889 301.891907,264.360443 
	C301.499786,263.721436 301.107666,263.082428 300.401428,261.811005 
	C299.228973,260.095795 298.056549,258.380554 296.884094,256.665314 
	C296.556641,256.875702 296.229156,257.086060 295.901672,257.296417 
	C295.901672,261.830536 295.901672,266.364655 295.901672,270.898773 
	C296.386230,270.910797 296.870789,270.922821 297.355316,270.934875 
	C297.500366,269.270111 297.515228,267.578857 297.846191,265.951904 
	C298.008362,265.154510 298.757568,264.476501 299.407257,264.315399 
	C299.984558,265.008881 300.561859,265.702332 301.357513,266.553406 
M340.682587,356.816132 
	C340.917511,356.821777 341.152466,356.827454 341.287567,357.626068 
	C341.414398,359.434540 341.541199,361.243011 341.667999,363.051483 
	C342.159576,363.034454 342.651184,363.017426 343.142761,363.000397 
	C343.142761,358.433929 343.142761,353.867493 343.142761,349.301025 
	C342.726227,349.092163 342.309723,348.883331 341.893188,348.674469 
	C341.081177,350.295197 340.269135,351.915924 339.160492,354.076385 
	C338.673157,355.119171 338.185852,356.161926 337.567566,357.484955 
	C336.872192,356.042847 336.389008,355.040741 335.842987,353.364014 
	C335.204834,352.227692 334.566681,351.091370 333.841797,349.784973 
	C333.841797,349.784973 334.122681,349.793732 334.122681,349.793732 
	C334.122681,349.793732 333.937836,349.882935 333.539734,350.199554 
	C330.692535,352.195129 330.418762,359.260132 333.285583,363.128204 
	C333.872375,360.635956 334.402039,358.386200 335.017975,356.831238 
	C335.709137,358.513062 336.400269,360.194855 337.091431,361.876648 
	C337.491760,361.854492 337.892120,361.832336 338.292450,361.810150 
	C338.863281,360.210480 339.434143,358.610840 340.682587,356.816132 
M305.104218,304.892578 
	C305.104218,308.832397 305.104218,312.772217 305.104218,316.950287 
	C308.459198,316.950287 311.233337,316.950287 314.548645,317.151550 
	C315.270721,316.614655 316.238647,316.227539 316.672668,315.515106 
	C318.630157,312.301819 320.283112,312.315491 322.631683,314.999084 
	C323.808960,316.344360 325.989807,316.811432 327.861633,317.748169 
	C328.531830,315.059540 328.904724,313.563660 329.444366,311.398865 
	C331.594299,313.800262 333.238281,315.636536 334.882263,317.472809 
	C335.202271,317.194305 335.522278,316.915771 335.842285,316.637268 
	C334.963135,314.923950 334.083984,313.210632 332.952576,311.005737 
	C334.349548,310.433380 335.552429,309.940552 336.618225,310.192749 
	C337.812134,317.609375 341.735870,319.615509 347.851990,315.430237 
	C348.582306,315.925323 349.312653,316.420380 350.519684,317.238586 
	C350.792847,314.913696 350.997284,313.173737 351.220001,311.278259 
	C353.141876,311.278259 354.849304,311.278259 356.516754,311.278259 
	C356.827515,313.435028 357.086884,315.234955 357.346222,317.034882 
	C357.675507,316.984680 358.004761,316.934448 358.334045,316.884247 
	C358.334045,312.357788 358.334045,307.831360 358.334045,303.304901 
	C358.032776,303.291962 357.731476,303.279053 357.430206,303.266144 
	C357.059174,304.962677 356.688171,306.659210 356.302948,308.420654 
	C354.529846,308.420654 352.962006,308.420654 351.400391,308.420654 
	C351.004211,306.465729 350.670715,304.820221 350.337250,303.174713 
	C349.895630,303.182678 349.454041,303.190643 349.012421,303.198608 
	C348.882599,305.666138 348.934845,308.161652 348.561737,310.591858 
	C348.293427,312.339294 347.457428,313.999573 346.750671,314.970001 
	C345.861023,314.988983 344.914124,315.212006 344.094269,314.982147 
	C342.635498,314.573090 340.312164,314.177521 340.032471,313.262299 
	C339.420929,311.260986 339.441132,308.805237 340.067627,306.806030 
	C340.347565,305.912750 342.684326,305.581207 344.137634,305.172546 
	C344.892365,304.960266 345.755951,305.135162 347.111786,305.135162 
	C342.189545,301.244141 339.046570,302.342407 336.309357,307.821320 
	C335.187897,302.294678 331.078674,302.737213 326.524628,303.181427 
	C326.198181,303.352600 326.091370,303.613678 326.079987,304.869934 
	C326.079987,308.122070 326.079987,311.374237 326.079987,314.626373 
	C325.783020,314.693695 325.486053,314.761017 325.189087,314.828339 
	C323.620636,310.760437 322.052185,306.692566 320.483734,302.624664 
	C319.928711,302.696777 319.373688,302.768921 318.818665,302.841034 
	C318.071014,304.743774 317.415741,306.689667 316.552338,308.538330 
	C315.472900,310.849457 314.222229,313.080627 312.181427,315.148102 
	C310.683380,314.539459 309.185303,313.930786 307.687256,313.322144 
	C309.189545,312.046692 310.691864,310.771240 312.028778,309.636200 
	C310.766083,308.824463 309.259674,307.856018 307.753235,306.887573 
	C309.577362,305.842560 311.401459,304.797546 314.236816,303.173187 
	C310.807434,303.173187 308.399902,303.173187 305.531067,303.188141 
	C305.199463,303.361359 305.096710,303.624084 305.104218,304.892578 
M287.388092,349.849396 
	C286.223724,350.294189 284.477631,350.413635 284.010620,351.248505 
	C282.882751,353.264923 282.352295,355.615509 281.065948,359.310791 
	C280.016663,355.809052 279.734863,353.617798 278.705688,351.865387 
	C277.997314,350.659180 276.252960,350.061340 274.050598,349.257355 
	C274.315857,349.753571 274.581146,350.249786 275.467773,351.004181 
	C276.465546,353.609039 277.361603,356.259399 278.499115,358.801758 
	C279.184753,360.334137 280.245789,361.698547 281.138123,363.138428 
	C282.055817,361.741272 283.066345,360.395294 283.870544,358.935577 
	C285.252655,356.426880 286.506042,353.847260 287.677643,352.174500 
	C287.677643,355.740082 287.677643,359.305634 287.677643,363.359222 
	C290.968262,363.115784 293.457123,362.931671 295.945984,362.747528 
	C295.919647,362.328217 295.893311,361.908905 295.866974,361.489563 
	C293.996613,361.238678 292.126251,360.987762 290.255890,360.736847 
	C289.998535,360.238861 289.741211,359.740875 289.483856,359.242889 
	C291.244385,358.054291 293.004944,356.865692 295.173767,355.401428 
	C292.989471,355.011230 291.164429,354.685211 289.970612,354.471954 
	C289.143280,352.789001 288.539062,351.559845 287.388092,349.849396 
M361.724640,259.993927 
	C361.724640,259.993927 361.239471,259.982635 360.901611,259.301025 
	C358.069641,258.312073 355.237701,257.323151 352.383392,256.326385 
	C352.383392,262.152283 352.383392,266.601715 352.383392,271.051147 
	C352.768585,271.033112 353.153809,271.015045 353.539001,270.997009 
	C353.849579,269.353943 354.160126,267.710876 354.721222,264.742188 
	C356.330261,266.932373 357.056244,268.377625 358.199127,269.314026 
	C358.949646,269.928864 360.302216,269.808807 361.707520,270.020782 
	C361.707520,270.020782 362.028351,269.989227 362.714447,270.176025 
	C365.666321,272.141418 369.017578,272.816223 371.009369,269.524597 
	C374.817261,263.231720 366.115509,264.090698 364.860840,259.561157 
	C367.115967,259.397308 369.063690,259.255768 372.283386,259.021820 
	C367.534637,256.067200 364.530487,255.874969 361.724640,259.993927 
M308.094818,337.838867 
	C306.716217,334.613373 305.388336,331.364563 303.923523,328.178711 
	C303.555206,327.377686 302.822662,326.343536 302.119171,326.222900 
	C301.547577,326.124817 300.408691,327.101746 300.142273,327.829315 
	C298.707031,331.748901 297.465668,335.739502 295.788116,340.825104 
	C297.496674,339.849274 298.340363,339.652954 298.676727,339.130127 
	C301.381897,334.925934 301.715973,334.986145 305.191589,338.898895 
	C305.896088,339.692017 307.709717,339.499908 309.659027,340.023590 
	C310.310730,337.575134 310.962433,335.126678 311.711395,332.312927 
	C313.750549,335.266266 315.581696,337.918365 317.412842,340.570435 
	C317.738770,340.338165 318.064728,340.105896 318.390656,339.873627 
	C318.390656,335.347778 318.390656,330.821899 318.390656,326.296021 
	C317.970551,326.278076 317.550476,326.260132 317.130371,326.242188 
	C316.958893,328.835907 316.787384,331.429626 316.538757,335.190216 
	C314.010071,331.306519 312.171997,328.483521 310.333954,325.660522 
	C309.819397,325.895813 309.304840,326.131073 308.790283,326.366333 
	C308.790283,330.120056 308.790283,333.873779 308.094818,337.838867 
M74.666847,246.500214 
	C74.666306,239.667999 74.724297,232.834839 74.616211,226.004333 
	C74.594414,224.626419 74.081490,222.132370 73.560066,222.068420 
	C70.134308,221.648239 66.546913,221.288528 63.236446,221.980942 
	C62.289810,222.178940 61.613258,225.920761 61.608864,228.039230 
	C61.516850,272.364990 61.535973,316.691010 61.550694,361.016968 
	C61.551331,362.933014 61.718739,364.848999 61.805237,366.696167 
	C66.314453,366.696167 70.235077,366.696167 74.666824,366.696167 
	C74.666824,326.750031 74.666824,287.125122 74.666847,246.500214 
M106.500519,200.619614 
	C86.083405,200.619614 65.666290,200.619614 45.188454,200.619614 
	C44.936058,202.748993 44.766819,204.176804 44.548149,206.021637 
	C40.505798,206.021637 36.737926,206.021637 32.807076,206.021637 
	C32.807076,212.021164 32.807076,217.551956 32.807076,223.247635 
	C37.018913,223.247635 40.791698,223.247635 44.883198,223.247635 
	C45.069618,219.927414 45.242451,216.849213 45.426670,213.568207 
	C79.768806,213.568207 113.789047,213.568207 147.953217,213.568207 
	C148.128601,217.217896 148.285507,220.483002 148.446487,223.833038 
	C152.799057,223.833038 156.698090,223.833038 160.700317,223.833038 
	C160.700317,218.083282 160.700317,212.676437 160.700317,206.696320 
	C156.669678,206.696320 152.934143,206.696320 149.164581,206.696320 
	C148.896698,204.506104 148.697556,202.878052 148.421326,200.619675 
	C134.736084,200.619675 121.118324,200.619675 106.500519,200.619614 
M103.202118,254.500122 
	C103.202118,243.702789 103.202118,232.905457 103.202118,221.857193 
	C98.655334,221.857193 94.590652,221.857193 90.505157,221.857193 
	C90.505157,262.946777 90.505157,303.650970 90.505157,344.553162 
	C94.778389,344.553162 98.685318,344.553162 103.202118,344.553162 
	C103.202118,314.673615 103.202118,285.086884 103.202118,254.500122 
M118.961433,297.500000 
	C118.961433,308.109009 118.961433,318.718018 118.961433,329.435608 
	C123.629311,329.435608 127.670654,329.435608 131.821320,329.435608 
	C131.821320,293.404327 131.821320,257.775787 131.821320,221.819214 
	C127.561966,221.819214 123.482384,221.819214 118.961433,221.819214 
	C118.961433,246.903061 118.961433,271.701538 118.961433,297.500000 
M340.816498,211.665695 
	C340.817871,215.822845 340.663086,219.989502 340.915100,224.131393 
	C340.991486,225.386749 342.192932,226.573654 342.879028,227.791916 
	C343.525299,226.503494 344.579102,225.261139 344.731049,223.916840 
	C345.027039,221.298294 344.817810,218.622650 344.817810,215.970642 
	C346.929657,218.344208 347.793915,220.817062 348.867676,223.195312 
	C349.214661,223.963821 350.246735,225.092789 350.728485,224.986160 
	C351.629181,224.786880 352.672974,223.963104 353.095856,223.118195 
	C354.285156,220.742050 355.189148,218.223129 356.205658,215.760498 
	C357.125549,219.197525 356.994965,222.356049 357.214966,225.489929 
	C357.271820,226.299835 358.428711,227.032501 359.080292,227.800659 
	C359.772339,227.095993 361.051544,226.403000 361.065887,225.684830 
	C361.213379,218.278351 361.156433,210.867813 361.156433,202.590469 
	C352.672699,204.707535 355.221130,213.338516 350.588562,217.415436 
	C349.374969,214.165039 348.303986,211.244812 347.194244,208.339386 
	C346.139862,205.578949 345.942322,201.644943 340.816833,203.826950 
	C340.816833,206.095642 340.816833,208.410995 340.816498,211.665695 
M390.949646,223.212463 
	C390.949646,220.009659 390.949646,216.806870 390.949646,213.604065 
	C394.425293,217.365829 396.566711,221.429962 399.053406,225.270493 
	C399.804932,226.431137 401.513611,226.972046 402.783844,227.796829 
	C403.339874,226.590912 404.340851,225.397903 404.376251,224.176880 
	C404.544861,218.364014 404.576355,212.538559 404.347260,206.729782 
	C404.299896,205.529129 402.935272,204.380432 402.177765,203.207779 
	C401.547363,204.349319 400.453735,205.459335 400.373474,206.638321 
	C400.132416,210.180359 400.286591,213.749313 400.286591,217.758179 
	C394.422760,213.720581 395.245758,204.675705 386.818695,202.776596 
	C386.818695,210.570084 386.716003,217.370071 386.912689,224.161407 
	C386.948395,225.394150 388.209503,226.591400 388.904907,227.805038 
	C389.586029,226.569717 390.267151,225.334396 390.949646,223.212463 
M287.975708,206.903519 
	C287.976318,212.719116 287.854797,218.539429 288.079681,224.346344 
	C288.125122,225.520294 289.480865,226.643509 290.232513,227.790115 
	C290.842133,226.665680 291.908722,225.568375 291.977356,224.411819 
	C292.201355,220.637589 292.061340,216.841736 292.061340,213.054199 
	C295.626434,217.278946 297.988403,221.656555 300.667114,225.830917 
	C301.305939,226.826447 303.002380,227.143295 304.212402,227.772278 
	C304.752075,226.721008 305.732971,225.680405 305.758667,224.616730 
	C305.907104,218.472443 305.935059,212.319107 305.725098,206.178360 
	C305.690369,205.162888 304.280731,204.194427 303.506500,203.204239 
	C302.905914,204.197037 301.845367,205.163727 301.787262,206.187302 
	C301.577393,209.885757 301.704712,213.603333 301.704712,217.313690 
	C301.255310,217.413239 300.805908,217.512802 300.356506,217.612350 
	C297.996460,213.532394 295.746216,209.381943 293.202362,205.419968 
	C292.531403,204.374939 291.015259,203.698273 289.748810,203.334747 
	C289.439911,203.246063 288.584320,205.061905 287.975708,206.903519 
M227.853653,204.334641 
	C224.019760,203.833466 220.185867,203.332275 216.115692,202.800217 
	C216.115692,211.659500 216.115692,219.552307 216.115692,227.401550 
	C224.829712,228.581268 230.058990,226.701935 232.416885,221.689407 
	C235.215744,215.739441 233.684662,209.107208 227.853653,204.334641 
M324.913727,234.825577 
	C331.168457,235.446411 332.591644,233.734116 330.330688,228.308289 
	C336.134979,225.196320 338.308319,221.717392 335.963928,218.097794 
	C334.643524,216.059158 331.838562,215.031677 329.883759,213.339203 
	C328.214600,211.894043 326.804382,210.149826 325.279633,208.537903 
	C327.529633,208.319809 329.782227,208.125122 332.028625,207.874634 
	C333.321045,207.730499 334.603424,207.496094 335.890320,207.302307 
	C335.874084,206.656830 335.857849,206.011353 335.841614,205.365875 
	C333.576080,204.578613 331.355164,203.338699 329.034546,203.109802 
	C325.521973,202.763336 322.246948,203.932999 321.104034,207.721756 
	C319.894562,211.731339 321.837555,214.445831 325.487854,216.089920 
	C326.850800,216.703766 328.429474,217.056824 329.525909,217.983170 
	C330.632996,218.918457 331.264282,220.416946 332.104034,221.668701 
	C330.642181,222.449615 329.247925,223.604752 327.695648,223.885208 
	C326.585632,224.085770 325.292358,222.883713 324.028687,222.726151 
	C322.642365,222.553299 321.196198,222.860962 318.776031,223.028458 
	C322.653168,226.646561 325.275940,229.094101 327.823792,231.471695 
	C326.381958,232.725891 325.494659,233.497742 324.913727,234.825577 
M273.742249,220.638550 
	C277.497223,219.972290 279.606262,221.305847 280.463806,225.248627 
	C280.723450,226.442429 282.936523,227.211365 284.254822,228.174911 
	C284.632446,227.752335 285.010040,227.329742 285.387634,226.907166 
	C282.956726,219.683914 280.622864,212.425797 278.045319,205.255264 
	C277.067780,202.535736 273.839783,202.090973 272.915222,204.528885 
	C270.070587,212.029816 267.638733,219.687302 265.046448,227.283936 
	C265.570404,227.666031 266.094360,228.048111 266.618317,228.430191 
	C267.796448,227.327499 269.111237,226.335175 270.115540,225.092087 
	C271.190857,223.761139 271.973755,222.193970 273.742249,220.638550 
M368.328522,213.676071 
	C366.851929,218.182053 365.375336,222.688019 363.898743,227.194000 
	C364.383911,227.573318 364.869049,227.952637 365.354218,228.331955 
	C366.580261,227.148849 368.340607,226.178009 368.913696,224.735504 
	C369.902130,222.247330 370.605682,220.452423 373.942902,220.463928 
	C377.210083,220.475204 378.360229,222.000412 378.930817,224.701279 
	C379.533234,227.553040 380.999786,228.668716 384.164795,227.078537 
	C381.723663,219.751511 379.386078,212.494751 376.818542,205.320251 
	C376.481720,204.379059 374.955658,203.286026 374.001007,203.304962 
	C373.036804,203.324036 371.674133,204.447128 371.232300,205.424072 
	C370.142426,207.834076 369.480164,210.437500 368.328522,213.676071 
M263.179016,210.640793 
	C260.122620,203.754822 255.143768,201.744064 246.345108,203.865875 
	C246.345108,211.737732 246.345108,219.613373 246.345108,227.435684 
	C259.688324,229.033081 265.568695,223.378769 263.179016,210.640793 
M450.351440,210.158829 
	C451.966187,208.128952 453.580963,206.099091 455.670380,203.472504 
	C447.865814,202.280426 447.459534,210.534332 442.130066,212.208282 
	C442.130066,209.761475 442.307220,207.608521 442.042389,205.511383 
	C441.937317,204.679459 440.851593,203.971390 440.212372,203.206924 
	C439.474152,204.028824 438.114746,204.836243 438.095154,205.674927 
	C437.925903,212.930588 437.997711,220.191879 437.997711,227.451492 
	C438.618652,227.701935 439.239563,227.952393 439.860504,228.202850 
	C440.624878,226.882004 441.594482,225.635803 442.108032,224.223740 
	C442.991364,221.794708 443.590454,219.262314 444.308838,216.773285 
	C444.843903,216.878830 445.378998,216.984375 445.914062,217.089905 
	C447.231049,219.373825 448.552887,221.654953 449.864044,223.942215 
	C452.213470,228.040741 452.210754,228.042297 456.198059,226.795486 
	C454.036560,223.024246 451.722443,219.400314 449.884583,215.549103 
	C449.266998,214.254944 449.861023,212.382584 450.351440,210.158829 
M194.830353,213.535187 
	C194.828995,216.527786 194.597366,219.544830 194.911682,222.503891 
	C195.103622,224.310791 196.135178,226.028519 196.789627,227.786285 
	C197.531952,226.126282 198.324478,224.486496 199.003586,222.801025 
	C199.810791,220.797638 200.520554,218.754990 201.561661,215.950455 
	C209.825531,227.759735 209.825531,227.759735 212.875595,226.967056 
	C212.591904,226.355423 212.423050,225.692093 212.035675,225.201233 
	C206.458481,218.134186 203.610931,211.031921 212.043732,203.283615 
	C204.794022,202.449646 204.101349,210.220749 198.980194,212.371704 
	C198.980194,209.708206 199.114258,207.398819 198.898758,205.122513 
	C198.833862,204.437042 197.654602,203.236023 197.235336,203.334412 
	C196.361816,203.539368 195.068680,204.384811 194.985474,205.089554 
	C194.694916,207.550690 194.846085,210.064011 194.830353,213.535187 
M418.106537,223.764099 
	C415.130157,224.091919 414.457703,222.416397 414.498108,219.851181 
	C414.571198,215.210739 414.604340,210.562637 414.384827,205.930466 
	C414.339844,204.981430 413.111053,204.088501 412.427948,203.169693 
	C411.662537,204.000763 410.253662,204.816086 410.232880,205.665359 
	C410.056183,212.895035 410.131744,220.130875 410.131744,227.872040 
	C414.601593,227.872040 418.380951,227.981461 422.144470,227.786346 
	C422.968414,227.743622 423.736115,226.615524 424.529694,225.987274 
	C423.687103,225.258926 422.946777,224.290558 421.971008,223.874924 
	C421.125397,223.514709 420.012817,223.781158 418.106537,223.764099 
M315.921661,206.004684 
	C315.107727,205.046021 314.293793,204.087372 313.479858,203.128723 
	C312.777954,204.213287 311.506653,205.278503 311.469086,206.385605 
	C311.266663,212.347687 311.245148,218.324921 311.472443,224.285080 
	C311.519043,225.507797 312.892181,226.679947 313.653839,227.875381 
	C314.412323,226.690231 315.777679,225.529312 315.826141,224.315826 
	C316.057434,218.521881 315.931274,212.713669 315.921661,206.004684 
M273.029449,313.785950 
	C273.319733,314.906372 273.610016,316.026794 273.900330,317.147217 
	C274.255127,317.070984 274.609924,316.994781 274.964691,316.918549 
	C275.419006,315.300171 275.873291,313.681763 276.496765,311.460571 
	C278.587585,313.799835 280.233337,315.641083 281.879059,317.482361 
	C282.196075,317.205688 282.513092,316.929047 282.830109,316.652374 
	C281.957336,314.926666 281.084564,313.200958 280.211792,311.475250 
	C280.633423,311.487885 281.055023,311.500519 281.476624,311.513153 
	C281.700256,309.313843 282.869049,305.845581 281.959229,305.167908 
	C279.773376,303.539795 276.612488,303.220734 273.028656,302.123596 
	C273.028656,306.711975 273.028656,309.830536 273.029449,313.785950 
M366.973511,357.251343 
	C366.973511,354.588715 366.973511,351.926086 366.973511,349.263489 
	C366.365112,349.252563 365.756714,349.241608 365.148315,349.230682 
	C364.969635,351.813690 364.790955,354.396667 364.539215,358.035461 
	C362.025177,354.313507 360.113190,351.482849 358.201202,348.652222 
	C357.923553,348.851318 357.645874,349.050415 357.368225,349.249512 
	C357.368225,353.805267 357.368225,358.361023 357.368225,362.916779 
	C357.747772,362.917145 358.127350,362.917542 358.506897,362.917908 
	C358.770081,360.484558 359.033234,358.051208 359.379456,354.850220 
	C361.757202,358.274719 363.594543,360.920929 365.431885,363.567169 
	C365.945770,363.341858 366.459656,363.116547 366.973541,362.891235 
	C366.973541,361.299072 366.973541,359.706909 366.973511,357.251343 
M326.622528,340.077545 
	C331.070435,338.229858 332.836304,335.066589 331.753662,330.886108 
	C330.702545,326.827332 327.831299,325.530701 321.488037,326.454620 
	C321.488037,330.768646 321.488037,335.140350 321.488037,339.947937 
	C322.994537,340.026306 324.429138,340.100922 326.622528,340.077545 
M431.910736,204.127151 
	C429.350220,202.274551 428.016754,202.929443 428.004913,206.088409 
	C427.982056,212.207611 427.904663,218.329605 428.078796,224.443893 
	C428.110840,225.568741 429.225342,226.662735 429.840179,227.770981 
	C430.606354,226.636887 431.998810,225.522263 432.034760,224.365448 
	C432.235077,217.922424 432.106567,211.469193 431.910736,204.127151 
M273.739197,256.908813 
	C268.673035,258.902130 266.888916,265.064026 270.149811,269.305817 
	C272.437378,272.281525 276.582428,272.816132 278.578156,269.730316 
	C280.023560,267.495392 280.958374,264.043793 280.309845,261.619141 
	C279.782837,259.648804 276.565247,258.398102 273.739197,256.908813 
M318.926025,356.370483 
	C318.758392,352.879822 318.027954,349.662689 313.912323,348.965363 
	C310.003937,348.303223 307.618591,350.059692 306.835480,354.010101 
	C305.927765,358.589020 307.949036,362.999298 311.659912,363.514130 
	C316.256622,364.151886 318.055939,361.092194 318.926025,356.370483 
M338.464813,259.922241 
	C338.340454,262.337494 337.662079,264.890747 338.221375,267.135681 
	C339.064667,270.520660 341.845459,272.894043 345.244019,271.183655 
	C347.327179,270.135284 349.492096,267.101135 349.603363,264.858734 
	C349.725983,262.386719 348.148041,258.839630 346.158905,257.579803 
	C344.675934,256.640594 341.360657,258.594574 338.464813,259.922241 
M306.578278,284.070251 
	C305.554199,287.313324 304.530121,290.556396 303.189026,294.803375 
	C306.077728,292.666046 307.798187,290.421997 309.577850,290.374054 
	C311.085693,290.333405 312.661957,292.832123 314.207947,294.207123 
	C313.840790,290.054901 312.745850,286.485687 311.429718,282.999939 
	C311.018127,281.909821 310.010040,281.044952 309.275024,280.076965 
	C308.468079,281.167786 307.661163,282.258606 306.578278,284.070251 
M350.395111,351.041168 
	C351.708740,350.860321 353.022369,350.679474 354.336029,350.498657 
	C354.289001,350.136505 354.242004,349.774384 354.194977,349.412231 
	C351.599396,349.412231 349.003815,349.412231 346.067169,349.412231 
	C346.067169,352.957672 346.045898,356.101105 346.078400,359.243988 
	C346.090149,360.381287 346.230621,361.517242 346.302368,362.515198 
	C349.164276,362.515198 351.822266,362.515198 355.210815,362.515198 
	C352.391479,361.124725 350.534821,360.209045 348.678162,359.293365 
	C350.193207,358.036987 351.708221,356.780579 353.264587,355.489899 
	C352.679535,353.659210 346.594208,356.237366 350.395111,351.041168 
M307.874725,268.641205 
	C309.618591,269.641388 311.386932,271.438690 313.098541,271.386230 
	C314.436218,271.345215 316.604187,269.096527 316.743561,267.666992 
	C316.877441,266.293854 315.032837,264.560089 313.766449,263.270844 
	C312.740936,262.226837 311.283051,261.607574 310.016937,260.799896 
	C310.143829,260.352875 310.270691,259.905823 310.397583,259.458801 
	C312.386230,259.331268 314.374878,259.203705 317.148224,259.025848 
	C313.770264,256.250854 310.690338,255.700104 308.653778,258.465607 
	C306.394287,261.533844 308.796600,263.541046 311.648346,264.954285 
	C312.807220,265.528595 313.731323,266.576691 314.762238,267.409241 
	C314.562805,267.913300 314.363342,268.417358 314.163910,268.921417 
	C312.242615,268.676971 310.321320,268.432526 307.874725,268.641205 
M264.464508,359.943573 
	C266.517731,351.467529 263.841736,348.317169 255.286926,349.452484 
	C255.286926,353.907837 255.286926,358.391724 255.286926,364.420624 
	C258.782837,362.894714 261.432922,361.738037 264.464508,359.943573 
M286.090210,271.392059 
	C291.767273,271.630981 292.675201,270.398132 290.896301,265.651154 
	C290.193481,263.775665 290.394714,261.561401 290.184326,259.501373 
	C290.729340,259.506226 291.274353,259.511047 291.819366,259.515900 
	C291.702545,261.405670 292.053833,263.503265 291.333710,265.125153 
	C290.650299,266.664246 288.845093,267.705231 287.533173,268.965240 
	C286.679047,267.438995 285.432404,266.000977 285.064606,264.365387 
	C284.538605,262.026154 284.655304,259.542450 284.497589,257.120422 
	C281.215027,262.166168 281.915863,267.503357 286.090210,271.392059 
M297.592957,307.839630 
	C297.979858,306.909760 298.173004,305.381989 298.795807,305.180145 
	C299.931671,304.812042 301.322174,305.229706 302.606445,305.319580 
	C300.002838,302.209961 297.042664,301.647827 294.918671,304.867981 
	C292.837555,308.023102 295.670532,309.471802 298.032684,310.883667 
	C299.239502,311.604980 300.221771,312.701996 301.305542,313.629181 
	C301.113525,314.063293 300.921539,314.497406 300.729523,314.931519 
	C298.597992,314.791168 296.466461,314.650818 294.334930,314.510468 
	C294.170959,314.911255 294.006989,315.312073 293.843018,315.712860 
	C295.743439,316.361328 297.761322,317.727966 299.509003,317.442230 
	C301.043152,317.191376 303.406860,315.043579 303.358521,313.814117 
	C303.295135,312.203979 301.270966,310.630341 299.982849,309.133331 
	C299.584442,308.670288 298.835968,308.508514 297.592957,307.839630 
M269.944916,353.882141 
	C270.200775,352.413940 270.456665,350.945770 270.713562,349.477722 
	C266.598358,349.414368 265.691437,353.256317 267.551880,362.690094 
	C270.225983,362.690094 272.864563,362.690094 276.509186,362.690094 
	C273.515106,361.187012 271.559906,360.205475 269.604706,359.223907 
	C271.143280,357.997437 272.681854,356.770996 274.481781,355.336243 
	C273.070740,355.043823 271.812622,354.783112 269.944916,353.882141 
M320.652496,354.690186 
	C320.652496,357.423859 320.652496,360.157532 320.652496,362.891205 
	C321.236755,362.897064 321.821014,362.902893 322.405273,362.908722 
	C322.694427,361.395813 322.983582,359.882904 323.272736,358.369995 
	C323.510315,358.583557 323.747894,358.797119 323.985474,359.010681 
	C325.314819,357.747284 326.644196,356.483887 327.973541,355.220490 
	C325.803314,353.210083 325.916779,348.518433 320.949829,349.243408 
	C320.841919,350.904388 320.747437,352.358765 320.652496,354.690186 
M259.920593,263.624268 
	C260.021820,258.457306 263.619568,258.823120 267.607239,259.639587 
	C264.914795,256.333435 261.862030,256.024384 259.466400,258.286530 
	C256.378906,261.202026 256.361603,267.230499 259.618805,269.978485 
	C262.502716,272.411591 265.334747,272.582886 268.480530,268.453491 
	C264.078644,269.051910 260.013336,270.105469 259.920593,263.624268 
M322.441803,271.224579 
	C323.963196,271.118195 325.484619,271.011810 327.006012,270.905457 
	C327.029358,270.474243 327.052704,270.043030 327.076050,269.611847 
	C325.121552,269.310730 323.167023,269.009644 320.524780,268.602570 
	C321.135162,267.175171 321.311127,265.720703 322.113586,265.155060 
	C323.084534,264.470642 324.585663,264.538330 325.857361,264.280579 
	C325.838867,263.959808 325.820374,263.639069 325.801880,263.318329 
	C323.970917,262.996979 322.139923,262.675629 320.131165,262.323090 
	C320.131165,260.768158 320.131165,259.463409 320.131165,258.158661 
	C319.684814,258.155945 319.238434,258.153229 318.792084,258.150513 
	C318.792084,262.087616 318.694519,266.030334 318.919800,269.954498 
	C318.946899,270.426514 320.723480,270.798126 322.441803,271.224579 
M374.103973,362.740997 
	C374.355347,360.669220 374.427094,358.554871 374.904999,356.536774 
	C375.461548,354.186676 376.373505,351.920807 377.149200,349.563904 
	C375.047913,349.563904 371.686005,349.563904 368.324066,349.563904 
	C367.882568,350.079285 367.441040,350.594666 366.999512,351.110016 
	C372.816803,349.940643 371.796112,353.187561 372.061035,355.786041 
	C372.305847,358.187195 372.932129,360.549469 374.103973,362.740997 
M287.774750,315.870972 
	C287.080963,314.498474 286.387146,313.126007 285.597565,311.564026 
	C288.078674,311.018188 289.530182,310.698853 291.204163,310.330597 
	C290.010620,307.805634 284.060913,310.253143 286.748657,305.164795 
	C288.744019,304.943726 290.694427,304.727600 292.644836,304.511505 
	C292.597900,304.140228 292.550964,303.768921 292.504028,303.397644 
	C289.836670,303.397644 287.169281,303.397644 284.282440,303.397644 
	C284.282440,307.974579 284.282440,312.369110 284.282440,316.835205 
	C287.028442,316.835205 289.466431,316.835205 291.904388,316.835205 
	C291.899323,316.542572 291.894257,316.249908 291.889221,315.957275 
	C290.782990,315.957275 289.676788,315.957275 287.774750,315.870972 
M318.820038,285.859680 
	C318.820038,288.514679 318.820038,291.169708 318.820038,293.824707 
	C319.298187,293.848999 319.776306,293.873322 320.254456,293.897614 
	C322.976837,289.885712 317.264496,282.843750 326.139252,280.593048 
	C321.400177,280.593048 318.190735,280.593048 315.690277,280.593048 
	C316.777161,282.121368 317.796844,283.555206 318.820038,285.859680 
M334.229553,269.117798 
	C331.429230,269.474060 330.910980,267.912476 331.023865,265.542419 
	C331.155151,262.786133 331.054504,260.018829 331.054504,257.256287 
	C330.504700,257.282806 329.954895,257.309326 329.405090,257.335846 
	C329.405090,261.788818 329.405090,266.241821 329.405090,271.241272 
	C331.946991,271.102570 334.321228,270.972992 336.695496,270.843414 
	C336.708313,270.489838 336.721130,270.136261 336.733978,269.782684 
	C336.183136,269.572876 335.632324,269.363098 334.229553,269.117798 
M300.041595,351.881805 
	C299.768097,350.974701 299.494598,350.067566 299.221100,349.160461 
	C298.918335,349.220581 298.615540,349.280701 298.312744,349.340820 
	C298.312744,353.837585 298.312744,358.334381 298.312744,363.303772 
	C301.016022,363.105713 303.361694,362.933838 305.707367,362.761963 
	C305.695343,362.373444 305.683319,361.984924 305.671295,361.596405 
	C303.966248,361.301758 302.261230,361.007111 300.048492,360.624725 
	C300.048492,358.020081 300.048492,355.405182 300.041595,351.881805 
z"/>
<path fill="#D4A868" opacity="1.000000" stroke="none" 
	d="
M74.666840,247.000214 
	C74.666824,287.125122 74.666824,326.750031 74.666824,366.696167 
	C70.235077,366.696167 66.314453,366.696167 61.805237,366.696167 
	C61.718739,364.848999 61.551331,362.933014 61.550694,361.016968 
	C61.535973,316.691010 61.516850,272.364990 61.608864,228.039230 
	C61.613258,225.920761 62.289810,222.178940 63.236446,221.980942 
	C66.546913,221.288528 70.134308,221.648239 73.560066,222.068420 
	C74.081490,222.132370 74.594414,224.626419 74.616211,226.004333 
	C74.724297,232.834839 74.666306,239.667999 74.666840,247.000214 
z"/>
<path fill="#D9AB68" opacity="1.000000" stroke="none" 
	d="
M107.000542,200.619644 
	C121.118324,200.619675 134.736084,200.619675 148.421326,200.619675 
	C148.697556,202.878052 148.896698,204.506104 149.164581,206.696320 
	C152.934143,206.696320 156.669678,206.696320 160.700317,206.696320 
	C160.700317,212.676437 160.700317,218.083282 160.700317,223.833038 
	C156.698090,223.833038 152.799057,223.833038 148.446487,223.833038 
	C148.285507,220.483002 148.128601,217.217896 147.953217,213.568207 
	C113.789047,213.568207 79.768806,213.568207 45.426670,213.568207 
	C45.242451,216.849213 45.069618,219.927414 44.883198,223.247635 
	C40.791698,223.247635 37.018913,223.247635 32.807076,223.247635 
	C32.807076,217.551956 32.807076,212.021164 32.807076,206.021637 
	C36.737926,206.021637 40.505798,206.021637 44.548149,206.021637 
	C44.766819,204.176804 44.936058,202.748993 45.188454,200.619614 
	C65.666290,200.619614 86.083405,200.619614 107.000542,200.619644 
z"/>
<path fill="#D6A968" opacity="1.000000" stroke="none" 
	d="
M103.202118,255.000137 
	C103.202118,285.086884 103.202118,314.673615 103.202118,344.553162 
	C98.685318,344.553162 94.778389,344.553162 90.505157,344.553162 
	C90.505157,303.650970 90.505157,262.946777 90.505157,221.857193 
	C94.590652,221.857193 98.655334,221.857193 103.202118,221.857193 
	C103.202118,232.905457 103.202118,243.702789 103.202118,255.000137 
z"/>
<path fill="#DAAB68" opacity="1.000000" stroke="none" 
	d="
M118.961433,297.000000 
	C118.961433,271.701538 118.961433,246.903061 118.961433,221.819214 
	C123.482384,221.819214 127.561966,221.819214 131.821320,221.819214 
	C131.821320,257.775787 131.821320,293.404327 131.821320,329.435608 
	C127.670654,329.435608 123.629311,329.435608 118.961433,329.435608 
	C118.961433,318.718018 118.961433,308.109009 118.961433,297.000000 
z"/>
<path fill="#CEA467" opacity="1.000000" stroke="none" 
	d="
M340.816650,211.196014 
	C340.816833,208.410995 340.816833,206.095642 340.816833,203.826950 
	C345.942322,201.644943 346.139862,205.578949 347.194244,208.339386 
	C348.303986,211.244812 349.374969,214.165039 350.588562,217.415436 
	C355.221130,213.338516 352.672699,204.707535 361.156433,202.590469 
	C361.156433,210.867813 361.213379,218.278351 361.065887,225.684830 
	C361.051544,226.403000 359.772339,227.095993 359.080292,227.800659 
	C358.428711,227.032501 357.271820,226.299835 357.214966,225.489929 
	C356.994965,222.356049 357.125549,219.197525 356.205658,215.760498 
	C355.189148,218.223129 354.285156,220.742050 353.095856,223.118195 
	C352.672974,223.963104 351.629181,224.786880 350.728485,224.986160 
	C350.246735,225.092789 349.214661,223.963821 348.867676,223.195312 
	C347.793915,220.817062 346.929657,218.344208 344.817810,215.970642 
	C344.817810,218.622650 345.027039,221.298294 344.731049,223.916840 
	C344.579102,225.261139 343.525299,226.503494 342.879028,227.791901 
	C342.192932,226.573654 340.991486,225.386749 340.915100,224.131393 
	C340.663086,219.989502 340.817871,215.822845 340.816650,211.196014 
z"/>
<path fill="#CEA467" opacity="1.000000" stroke="none" 
	d="
M390.948975,223.655762 
	C390.267151,225.334396 389.586029,226.569717 388.904907,227.805038 
	C388.209503,226.591400 386.948395,225.394150 386.912689,224.161407 
	C386.716003,217.370071 386.818695,210.570084 386.818695,202.776596 
	C395.245758,204.675705 394.422760,213.720581 400.286591,217.758179 
	C400.286591,213.749313 400.132416,210.180359 400.373474,206.638321 
	C400.453735,205.459335 401.547363,204.349319 402.177765,203.207779 
	C402.935272,204.380432 404.299896,205.529129 404.347260,206.729782 
	C404.576355,212.538559 404.544861,218.364014 404.376251,224.176880 
	C404.340851,225.397903 403.339874,226.590912 402.783844,227.796829 
	C401.513611,226.972046 399.804932,226.431137 399.053406,225.270493 
	C396.566711,221.429962 394.425293,217.365829 390.949646,213.604065 
	C390.949646,216.806870 390.949646,220.009659 390.948975,223.655762 
z"/>
<path fill="#D0A567" opacity="1.000000" stroke="none" 
	d="
M287.977905,206.452789 
	C288.584320,205.061905 289.439911,203.246063 289.748810,203.334747 
	C291.015259,203.698273 292.531403,204.374939 293.202362,205.419968 
	C295.746216,209.381943 297.996460,213.532394 300.356506,217.612350 
	C300.805908,217.512802 301.255310,217.413239 301.704712,217.313690 
	C301.704712,213.603333 301.577393,209.885757 301.787262,206.187302 
	C301.845367,205.163727 302.905914,204.197037 303.506500,203.204239 
	C304.280731,204.194427 305.690369,205.162888 305.725098,206.178360 
	C305.935059,212.319107 305.907104,218.472443 305.758667,224.616730 
	C305.732971,225.680405 304.752075,226.721008 304.212402,227.772278 
	C303.002380,227.143295 301.305939,226.826447 300.667114,225.830917 
	C297.988403,221.656555 295.626434,217.278946 292.061340,213.054199 
	C292.061340,216.841736 292.201355,220.637589 291.977356,224.411819 
	C291.908722,225.568375 290.842133,226.665680 290.232513,227.790115 
	C289.480865,226.643509 288.125122,225.520294 288.079681,224.346344 
	C287.854797,218.539429 287.976318,212.719116 287.977905,206.452789 
z"/>
<path fill="#D1A567" opacity="1.000000" stroke="none" 
	d="
M228.180099,204.542816 
	C233.684662,209.107208 235.215744,215.739441 232.416885,221.689407 
	C230.058990,226.701935 224.829712,228.581268 216.115692,227.401550 
	C216.115692,219.552307 216.115692,211.659500 216.115692,202.800217 
	C220.185867,203.332275 224.019760,203.833466 228.180099,204.542816 
M226.106430,222.764221 
	C230.145950,219.273270 229.976562,214.878235 228.195389,210.560028 
	C226.804245,207.187363 223.633942,206.858978 220.290527,207.206909 
	C220.290527,212.969528 220.290527,218.355194 220.290527,224.171722 
	C222.225906,223.788132 223.808640,223.474442 226.106430,222.764221 
z"/>
<path fill="#CEA467" opacity="1.000000" stroke="none" 
	d="
M324.760559,234.547577 
	C325.494659,233.497742 326.381958,232.725891 327.823792,231.471695 
	C325.275940,229.094101 322.653168,226.646561 318.776031,223.028458 
	C321.196198,222.860962 322.642365,222.553299 324.028687,222.726151 
	C325.292358,222.883713 326.585632,224.085770 327.695648,223.885208 
	C329.247925,223.604752 330.642181,222.449615 332.104034,221.668701 
	C331.264282,220.416946 330.632996,218.918457 329.525909,217.983170 
	C328.429474,217.056824 326.850800,216.703766 325.487854,216.089920 
	C321.837555,214.445831 319.894562,211.731339 321.104034,207.721756 
	C322.246948,203.932999 325.521973,202.763336 329.034546,203.109802 
	C331.355164,203.338699 333.576080,204.578613 335.841614,205.365875 
	C335.857849,206.011353 335.874084,206.656830 335.890320,207.302307 
	C334.603424,207.496094 333.321045,207.730499 332.028625,207.874634 
	C329.782227,208.125122 327.529633,208.319809 325.279633,208.537903 
	C326.804382,210.149826 328.214600,211.894043 329.883759,213.339203 
	C331.838562,215.031677 334.643524,216.059158 335.963928,218.097794 
	C338.308319,221.717392 336.134979,225.196320 330.330688,228.308289 
	C332.591644,233.734116 331.168457,235.446411 324.760559,234.547577 
z"/>
<path fill="#C9A167" opacity="1.000000" stroke="none" 
	d="
M273.313232,220.684219 
	C271.973755,222.193970 271.190857,223.761139 270.115540,225.092087 
	C269.111237,226.335175 267.796448,227.327499 266.618317,228.430191 
	C266.094360,228.048111 265.570404,227.666031 265.046448,227.283936 
	C267.638733,219.687302 270.070587,212.029816 272.915222,204.528885 
	C273.839783,202.090973 277.067780,202.535736 278.045319,205.255264 
	C280.622864,212.425797 282.956726,219.683914 285.387634,226.907166 
	C285.010040,227.329742 284.632446,227.752335 284.254822,228.174911 
	C282.936523,227.211365 280.723450,226.442429 280.463806,225.248627 
	C279.606262,221.305847 277.497223,219.972290 273.313232,220.684219 
z"/>
<path fill="#CCA267" opacity="1.000000" stroke="none" 
	d="
M368.487274,213.319611 
	C369.480164,210.437500 370.142426,207.834076 371.232300,205.424072 
	C371.674133,204.447128 373.036804,203.324036 374.001007,203.304962 
	C374.955658,203.286026 376.481720,204.379059 376.818542,205.320251 
	C379.386078,212.494751 381.723663,219.751511 384.164795,227.078537 
	C380.999786,228.668716 379.533234,227.553040 378.930817,224.701279 
	C378.360229,222.000412 377.210083,220.475204 373.942902,220.463928 
	C370.605682,220.452423 369.902130,222.247330 368.913696,224.735504 
	C368.340607,226.178009 366.580261,227.148849 365.354218,228.331955 
	C364.869049,227.952637 364.383911,227.573318 363.898743,227.194000 
	C365.375336,222.688019 366.851929,218.182053 368.487274,213.319611 
z"/>
<path fill="#D1A567" opacity="1.000000" stroke="none" 
	d="
M263.297119,211.029984 
	C265.568695,223.378769 259.688324,229.033081 246.345108,227.435684 
	C246.345108,219.613373 246.345108,211.737732 246.345108,203.865875 
	C255.143768,201.744064 260.122620,203.754822 263.297119,211.029984 
M258.960022,219.261063 
	C260.629089,210.306503 257.961121,206.589279 250.131287,207.619003 
	C250.131287,210.190796 250.131287,212.823593 250.131287,215.456406 
	C250.131287,218.206604 250.131287,220.956802 250.131287,223.636414 
	C254.364746,224.358871 257.022369,223.224335 258.960022,219.261063 
z"/>
<path fill="#D3A667" opacity="1.000000" stroke="none" 
	d="
M450.126343,210.466675 
	C449.861023,212.382584 449.266998,214.254944 449.884583,215.549103 
	C451.722443,219.400314 454.036560,223.024246 456.198059,226.795486 
	C452.210754,228.042297 452.213470,228.040741 449.864044,223.942215 
	C448.552887,221.654953 447.231049,219.373825 445.914062,217.089905 
	C445.378998,216.984375 444.843903,216.878830 444.308838,216.773285 
	C443.590454,219.262314 442.991364,221.794708 442.108032,224.223740 
	C441.594482,225.635803 440.624878,226.882004 439.860504,228.202850 
	C439.239563,227.952393 438.618652,227.701935 437.997711,227.451492 
	C437.997711,220.191879 437.925903,212.930588 438.095154,205.674927 
	C438.114746,204.836243 439.474152,204.028824 440.212372,203.206940 
	C440.851593,203.971390 441.937317,204.679459 442.042389,205.511383 
	C442.307220,207.608521 442.130066,209.761475 442.130066,212.208282 
	C447.459534,210.534332 447.865814,202.280426 455.670380,203.472504 
	C453.580963,206.099091 451.966187,208.128952 450.126343,210.466675 
z"/>
<path fill="#D3A667" opacity="1.000000" stroke="none" 
	d="
M194.829880,213.046341 
	C194.846085,210.064011 194.694916,207.550690 194.985474,205.089554 
	C195.068680,204.384811 196.361816,203.539368 197.235336,203.334412 
	C197.654602,203.236023 198.833862,204.437042 198.898758,205.122513 
	C199.114258,207.398819 198.980194,209.708206 198.980194,212.371704 
	C204.101349,210.220749 204.794022,202.449646 212.043732,203.283615 
	C203.610931,211.031921 206.458481,218.134186 212.035675,225.201233 
	C212.423050,225.692093 212.591904,226.355423 212.875595,226.967056 
	C209.825531,227.759735 209.825531,227.759735 201.561661,215.950455 
	C200.520554,218.754990 199.810791,220.797638 199.003586,222.801025 
	C198.324478,224.486496 197.531952,226.126282 196.789627,227.786285 
	C196.135178,226.028519 195.103622,224.310791 194.911682,222.503891 
	C194.597366,219.544830 194.828995,216.527786 194.829880,213.046341 
z"/>
<path fill="#B79565" opacity="1.000000" stroke="none" 
	d="
M313.045471,315.346313 
	C314.222229,313.080627 315.472900,310.849457 316.552338,308.538330 
	C317.415741,306.689667 318.071014,304.743774 318.818665,302.841034 
	C319.373688,302.768921 319.928711,302.696777 320.483734,302.624664 
	C322.052185,306.692566 323.620636,310.760437 325.189087,314.828339 
	C325.486053,314.761017 325.783020,314.693695 326.079987,314.626373 
	C326.079987,311.374237 326.079987,308.122070 326.280579,304.290588 
	C326.660522,303.536102 326.827728,303.350037 326.982788,303.153076 
	C331.078674,302.737213 335.187897,302.294678 336.599030,308.283844 
	C336.844208,308.980164 336.799744,309.213928 336.755310,309.447723 
	C335.552429,309.940552 334.349548,310.433380 332.952576,311.005737 
	C334.083984,313.210632 334.963135,314.923950 335.842285,316.637268 
	C335.522278,316.915771 335.202271,317.194305 334.882263,317.472809 
	C333.238281,315.636536 331.594299,313.800262 329.444366,311.398865 
	C328.904724,313.563660 328.531830,315.059540 327.861633,317.748169 
	C325.989807,316.811432 323.808960,316.344360 322.631683,314.999084 
	C320.283112,312.315491 318.630157,312.301819 316.672668,315.515106 
	C316.238647,316.227539 315.270721,316.614655 314.152954,316.853333 
	C313.519989,316.152191 313.282715,315.749268 313.045471,315.346313 
M319.391296,311.173309 
	C319.777588,311.176331 320.164276,311.186310 320.549011,311.163513 
	C320.570160,311.162262 320.575073,310.888123 320.587524,310.740997 
	C320.199524,310.785706 319.811523,310.830414 319.391296,311.173309 
z"/>
<path fill="#C9A167" opacity="1.000000" stroke="none" 
	d="
M418.562378,223.767365 
	C420.012817,223.781158 421.125397,223.514709 421.971008,223.874924 
	C422.946777,224.290558 423.687103,225.258926 424.529694,225.987274 
	C423.736115,226.615524 422.968414,227.743622 422.144470,227.786346 
	C418.380951,227.981461 414.601593,227.872040 410.131744,227.872040 
	C410.131744,220.130875 410.056183,212.895035 410.232880,205.665359 
	C410.253662,204.816086 411.662537,204.000763 412.427948,203.169693 
	C413.111053,204.088501 414.339844,204.981430 414.384827,205.930466 
	C414.604340,210.562637 414.571198,215.210739 414.498108,219.851181 
	C414.457703,222.416397 415.130157,224.091919 418.562378,223.767365 
z"/>
<path fill="#B99665" opacity="1.000000" stroke="none" 
	d="
M315.926941,206.457611 
	C315.931274,212.713669 316.057434,218.521881 315.826141,224.315826 
	C315.777679,225.529312 314.412323,226.690231 313.653870,227.875397 
	C312.892181,226.679947 311.519043,225.507797 311.472443,224.285080 
	C311.245148,218.324921 311.266663,212.347687 311.469086,206.385605 
	C311.506653,205.278503 312.777954,204.213287 313.479858,203.128723 
	C314.293793,204.087372 315.107727,205.046021 315.926941,206.457611 
z"/>
<path fill="#B99665" opacity="1.000000" stroke="none" 
	d="
M361.385162,270.017883 
	C360.302216,269.808807 358.949646,269.928864 358.199127,269.314026 
	C357.056244,268.377625 356.330261,266.932373 354.721222,264.742188 
	C354.160126,267.710876 353.849579,269.353943 353.539001,270.997009 
	C353.153809,271.015045 352.768585,271.033112 352.383392,271.051147 
	C352.383392,266.601715 352.383392,262.152283 352.383392,256.326385 
	C355.237701,257.323151 358.069641,258.312073 361.035217,260.028748 
	C360.531067,263.860199 357.310760,267.024261 361.385162,270.017883 
z"/>
<path fill="#B59365" opacity="1.000000" stroke="none" 
	d="
M273.029053,313.367523 
	C273.028656,309.830536 273.028656,306.711975 273.028656,302.123596 
	C276.612488,303.220734 279.773376,303.539795 281.959229,305.167908 
	C282.869049,305.845581 281.700256,309.313843 281.476624,311.513153 
	C281.055023,311.500519 280.633423,311.487885 280.211792,311.475250 
	C281.084564,313.200958 281.957336,314.926666 282.830109,316.652374 
	C282.513092,316.929047 282.196075,317.205688 281.879059,317.482361 
	C280.233337,315.641083 278.587585,313.799835 276.496765,311.460571 
	C275.873291,313.681763 275.419006,315.300171 274.964691,316.918549 
	C274.609924,316.994781 274.255127,317.070984 273.900330,317.147217 
	C273.610016,316.026794 273.319733,314.906372 273.029053,313.367523 
z"/>
<path fill="#C09A66" opacity="1.000000" stroke="none" 
	d="
M366.973511,357.683044 
	C366.973541,359.706909 366.973541,361.299072 366.973541,362.891235 
	C366.459656,363.116547 365.945770,363.341858 365.431885,363.567169 
	C363.594543,360.920929 361.757202,358.274719 359.379456,354.850220 
	C359.033234,358.051208 358.770081,360.484558 358.506897,362.917908 
	C358.127350,362.917542 357.747772,362.917145 357.368225,362.916779 
	C357.368225,358.361023 357.368225,353.805267 357.368225,349.249512 
	C357.645874,349.050415 357.923553,348.851318 358.201202,348.652222 
	C360.113190,351.482849 362.025177,354.313507 364.539215,358.035461 
	C364.790955,354.396667 364.969635,351.813690 365.148315,349.230682 
	C365.756714,349.241608 366.365112,349.252563 366.973511,349.263489 
	C366.973511,351.926086 366.973511,354.588715 366.973511,357.683044 
z"/>
<path fill="#B19165" opacity="1.000000" stroke="none" 
	d="
M326.243134,340.126526 
	C324.429138,340.100922 322.994537,340.026306 321.488037,339.947937 
	C321.488037,335.140350 321.488037,330.768646 321.488037,326.454620 
	C327.831299,325.530701 330.702545,326.827332 331.753662,330.886108 
	C332.836304,335.066589 331.070435,338.229858 326.243134,340.126526 
M325.270782,337.960815 
	C329.281372,337.609009 329.673553,334.635437 328.971619,331.832184 
	C328.564789,330.207336 326.588135,328.975525 325.317932,327.566864 
	C324.796295,327.886444 324.274628,328.206024 323.752991,328.525574 
	C323.985260,331.585571 324.217529,334.645569 325.270782,337.960815 
z"/>
<path fill="#D6A968" opacity="1.000000" stroke="none" 
	d="
M432.000610,204.573303 
	C432.106567,211.469193 432.235077,217.922424 432.034760,224.365448 
	C431.998810,225.522263 430.606354,226.636887 429.840210,227.770966 
	C429.225342,226.662735 428.110840,225.568741 428.078796,224.443893 
	C427.904663,218.329605 427.982056,212.207611 428.004913,206.088409 
	C428.016754,202.929443 429.350220,202.274551 432.000610,204.573303 
z"/>
<path fill="#B99665" opacity="1.000000" stroke="none" 
	d="
M274.140015,256.868530 
	C276.565247,258.398102 279.782837,259.648804 280.309845,261.619141 
	C280.958374,264.043793 280.023560,267.495392 278.578156,269.730316 
	C276.582428,272.816132 272.437378,272.281525 270.149811,269.305817 
	C266.888916,265.064026 268.673035,258.902130 274.140015,256.868530 
M273.060577,259.370605 
	C272.586060,261.925751 271.287384,264.684052 271.854065,266.982483 
	C272.503448,269.616516 275.216583,270.163788 277.285004,267.829712 
	C279.966736,264.803558 277.935638,259.896667 273.060577,259.370605 
z"/>
<path fill="#B99665" opacity="1.000000" stroke="none" 
	d="
M318.906250,356.770660 
	C318.055939,361.092194 316.256622,364.151886 311.659912,363.514130 
	C307.949036,362.999298 305.927765,358.589020 306.835480,354.010101 
	C307.618591,350.059692 310.003937,348.303223 313.912323,348.965363 
	C318.027954,349.662689 318.758392,352.879822 318.906250,356.770660 
M314.249451,360.828430 
	C314.886749,358.736603 316.047668,356.623474 315.963806,354.560944 
	C315.913940,353.335358 313.876831,351.229919 312.782715,351.261047 
	C311.534607,351.296509 309.574066,353.096924 309.277283,354.431488 
	C308.562225,357.646698 308.847412,360.901428 314.249451,360.828430 
z"/>
<path fill="#B99665" opacity="1.000000" stroke="none" 
	d="
M338.663086,259.591187 
	C341.360657,258.594574 344.675934,256.640594 346.158905,257.579803 
	C348.148041,258.839630 349.725983,262.386719 349.603363,264.858734 
	C349.492096,267.101135 347.327179,270.135284 345.244019,271.183655 
	C341.845459,272.894043 339.064667,270.520660 338.221375,267.135681 
	C337.662079,264.890747 338.340454,262.337494 338.663086,259.591187 
M343.638397,269.124634 
	C346.983429,267.552551 348.622498,263.590973 346.579620,260.893219 
	C345.787201,259.846771 342.933228,258.981079 342.136963,259.563171 
	C339.121429,261.767670 339.313812,264.878876 341.253601,267.871399 
	C341.582825,268.379303 342.283600,268.646362 343.638397,269.124634 
z"/>
<path fill="#B59365" opacity="1.000000" stroke="none" 
	d="
M309.012024,339.762024 
	C307.709717,339.499908 305.896088,339.692017 305.191589,338.898895 
	C301.715973,334.986145 301.381897,334.925934 298.676727,339.130127 
	C298.340363,339.652954 297.496674,339.849274 295.788116,340.825104 
	C297.465668,335.739502 298.707031,331.748901 300.142273,327.829315 
	C300.408691,327.101746 301.547577,326.124817 302.119171,326.222900 
	C302.822662,326.343536 303.555206,327.377686 303.923523,328.178711 
	C305.388336,331.364563 306.716217,334.613373 308.497681,337.996490 
	C308.937714,338.690094 308.974854,339.226044 309.012024,339.762024 
z"/>
<path fill="#C9A167" opacity="1.000000" stroke="none" 
	d="
M346.874695,315.698730 
	C347.457428,313.999573 348.293427,312.339294 348.561737,310.591858 
	C348.934845,308.161652 348.882599,305.666138 349.012421,303.198608 
	C349.454041,303.190643 349.895630,303.182678 350.337250,303.174713 
	C350.670715,304.820221 351.004211,306.465729 351.400391,308.420654 
	C352.962006,308.420654 354.529846,308.420654 356.302948,308.420654 
	C356.688171,306.659210 357.059174,304.962677 357.430206,303.266144 
	C357.731476,303.279053 358.032776,303.291962 358.334045,303.304901 
	C358.334045,307.831360 358.334045,312.357788 358.334045,316.884247 
	C358.004761,316.934448 357.675507,316.984680 357.346222,317.034882 
	C357.086884,315.234955 356.827515,313.435028 356.516754,311.278259 
	C354.849304,311.278259 353.141876,311.278259 351.220001,311.278259 
	C350.997284,313.173737 350.792847,314.913696 350.519684,317.238586 
	C349.312653,316.420380 348.582306,315.925323 347.373291,315.484375 
	C346.894623,315.538544 346.874695,315.698730 346.874695,315.698730 
z"/>
<path fill="#C09A66" opacity="1.000000" stroke="none" 
	d="
M309.335510,339.892822 
	C308.974854,339.226044 308.937714,338.690094 308.845398,337.890808 
	C308.790283,333.873779 308.790283,330.120056 308.790283,326.366333 
	C309.304840,326.131073 309.819397,325.895813 310.333954,325.660522 
	C312.171997,328.483521 314.010071,331.306519 316.538757,335.190216 
	C316.787384,331.429626 316.958893,328.835907 317.130371,326.242188 
	C317.550476,326.260132 317.970551,326.278076 318.390656,326.296021 
	C318.390656,330.821899 318.390656,335.347778 318.390656,339.873627 
	C318.064728,340.105896 317.738770,340.338165 317.412842,340.570435 
	C315.581696,337.918365 313.750549,335.266266 311.711395,332.312927 
	C310.962433,335.126678 310.310730,337.575134 309.335510,339.892822 
z"/>
<path fill="#B59365" opacity="1.000000" stroke="none" 
	d="
M306.716248,283.709839 
	C307.661163,282.258606 308.468079,281.167786 309.275024,280.076965 
	C310.010040,281.044952 311.018127,281.909821 311.429718,282.999939 
	C312.745850,286.485687 313.840790,290.054901 314.207947,294.207123 
	C312.661957,292.832123 311.085693,290.333405 309.577850,290.374054 
	C307.798187,290.421997 306.077728,292.666046 303.189026,294.803375 
	C304.530121,290.556396 305.554199,287.313324 306.716248,283.709839 
z"/>
<path fill="#C09A66" opacity="1.000000" stroke="none" 
	d="
M349.983643,351.113770 
	C346.594208,356.237366 352.679535,353.659210 353.264587,355.489899 
	C351.708221,356.780579 350.193207,358.036987 348.678162,359.293365 
	C350.534821,360.209045 352.391479,361.124725 355.210815,362.515198 
	C351.822266,362.515198 349.164276,362.515198 346.302368,362.515198 
	C346.230621,361.517242 346.090149,360.381287 346.078400,359.243988 
	C346.045898,356.101105 346.067169,352.957672 346.067169,349.412231 
	C349.003815,349.412231 351.599396,349.412231 354.194977,349.412231 
	C354.242004,349.774384 354.289001,350.136505 354.336029,350.498657 
	C353.022369,350.679474 351.708740,350.860321 349.983643,351.113770 
z"/>
<path fill="#B59365" opacity="1.000000" stroke="none" 
	d="
M308.137390,268.414642 
	C310.321320,268.432526 312.242615,268.676971 314.163910,268.921417 
	C314.363342,268.417358 314.562805,267.913300 314.762238,267.409241 
	C313.731323,266.576691 312.807220,265.528595 311.648346,264.954285 
	C308.796600,263.541046 306.394287,261.533844 308.653778,258.465607 
	C310.690338,255.700104 313.770264,256.250854 317.148224,259.025848 
	C314.374878,259.203705 312.386230,259.331268 310.397583,259.458801 
	C310.270691,259.905823 310.143829,260.352875 310.016937,260.799896 
	C311.283051,261.607574 312.740936,262.226837 313.766449,263.270844 
	C315.032837,264.560089 316.877441,266.293854 316.743561,267.666992 
	C316.604187,269.096527 314.436218,271.345215 313.098541,271.386230 
	C311.386932,271.438690 309.618591,269.641388 308.137390,268.414642 
z"/>
<path fill="#C09A66" opacity="1.000000" stroke="none" 
	d="
M264.273743,360.262451 
	C261.432922,361.738037 258.782837,362.894714 255.286926,364.420624 
	C255.286926,358.391724 255.286926,353.907837 255.286926,349.452484 
	C263.841736,348.317169 266.517731,351.467529 264.273743,360.262451 
M257.074249,353.837555 
	C257.074249,356.198486 257.074249,358.559387 257.074249,360.979553 
	C262.504333,360.315460 264.675110,356.184296 261.966339,352.767670 
	C260.587372,351.028351 258.543854,349.120575 257.074249,353.837555 
z"/>
<path fill="#B19165" opacity="1.000000" stroke="none" 
	d="
M285.745544,271.240540 
	C281.915863,267.503357 281.215027,262.166168 284.497589,257.120422 
	C284.655304,259.542450 284.538605,262.026154 285.064606,264.365387 
	C285.432404,266.000977 286.679047,267.438995 287.533173,268.965240 
	C288.845093,267.705231 290.650299,266.664246 291.333710,265.125153 
	C292.053833,263.503265 291.702545,261.405670 291.819366,259.515900 
	C291.274353,259.511047 290.729340,259.506226 290.184326,259.501373 
	C290.394714,261.561401 290.193481,263.775665 290.896301,265.651154 
	C292.675201,270.398132 291.767273,271.630981 285.745544,271.240540 
z"/>
<path fill="#B59365" opacity="1.000000" stroke="none" 
	d="
M297.920349,308.024231 
	C298.835968,308.508514 299.584442,308.670288 299.982849,309.133331 
	C301.270966,310.630341 303.295135,312.203979 303.358521,313.814117 
	C303.406860,315.043579 301.043152,317.191376 299.509003,317.442230 
	C297.761322,317.727966 295.743439,316.361328 293.843018,315.712860 
	C294.006989,315.312073 294.170959,314.911255 294.334930,314.510468 
	C296.466461,314.650818 298.597992,314.791168 300.729523,314.931519 
	C300.921539,314.497406 301.113525,314.063293 301.305542,313.629181 
	C300.221771,312.701996 299.239502,311.604980 298.032684,310.883667 
	C295.670532,309.471802 292.837555,308.023102 294.918671,304.867981 
	C297.042664,301.647827 300.002838,302.209961 302.606445,305.319580 
	C301.322174,305.229706 299.931671,304.812042 298.795807,305.180145 
	C298.173004,305.381989 297.979858,306.909760 297.920349,308.024231 
z"/>
<path fill="#B79565" opacity="1.000000" stroke="none" 
	d="
M362.208984,260.024017 
	C364.530487,255.874969 367.534637,256.067200 372.283386,259.021820 
	C369.063690,259.255768 367.115967,259.397308 364.860840,259.561157 
	C366.115509,264.090698 374.817261,263.231720 371.009369,269.524597 
	C369.017578,272.816223 365.666321,272.141418 362.461670,269.739502 
	C364.476074,269.046509 366.743195,268.790009 369.697357,268.455811 
	C366.863708,265.265167 364.536346,262.644592 362.208984,260.024017 
z"/>
<path fill="#B59365" opacity="1.000000" stroke="none" 
	d="
M287.813477,351.297394 
	C286.506042,353.847260 285.252655,356.426880 283.870544,358.935577 
	C283.066345,360.395294 282.055817,361.741272 281.138123,363.138428 
	C280.245789,361.698547 279.184753,360.334137 278.499115,358.801758 
	C277.361603,356.259399 276.465546,353.609039 275.183472,350.486023 
	C274.923279,349.709076 274.947449,349.450348 274.971619,349.191589 
	C276.252960,350.061340 277.997314,350.659180 278.705688,351.865387 
	C279.734863,353.617798 280.016663,355.809052 281.065948,359.310791 
	C282.352295,355.615509 282.882751,353.264923 284.010620,351.248505 
	C284.477631,350.413635 286.223724,350.294189 287.650604,350.334167 
	C287.913116,350.818909 287.813446,351.297394 287.813477,351.297394 
z"/>
<path fill="#C9A167" opacity="1.000000" stroke="none" 
	d="
M270.249725,354.202271 
	C271.812622,354.783112 273.070740,355.043823 274.481781,355.336243 
	C272.681854,356.770996 271.143280,357.997437 269.604706,359.223938 
	C271.559906,360.205475 273.515106,361.187012 276.509186,362.690094 
	C272.864563,362.690094 270.225983,362.690094 267.551880,362.690094 
	C265.691437,353.256317 266.598358,349.414368 270.713074,349.477661 
	C270.456665,350.945770 270.200775,352.413940 270.249725,354.202271 
z"/>
<path fill="#C09A66" opacity="1.000000" stroke="none" 
	d="
M312.613464,315.247192 
	C313.282715,315.749268 313.519989,316.152191 313.882324,316.752716 
	C311.233337,316.950287 308.459198,316.950287 305.104218,316.950287 
	C305.104218,312.772217 305.104218,308.832397 305.303711,304.312378 
	C305.682678,303.560242 305.845734,303.373901 305.992401,303.173187 
	C308.399902,303.173187 310.807434,303.173187 314.236816,303.173187 
	C311.401459,304.797546 309.577362,305.842560 307.753235,306.887573 
	C309.259674,307.856018 310.766083,308.824463 312.028778,309.636200 
	C310.691864,310.771240 309.189545,312.046692 307.687256,313.322144 
	C309.185303,313.930786 310.683380,314.539459 312.613464,315.247192 
z"/>
<path fill="#CEA467" opacity="1.000000" stroke="none" 
	d="
M320.652710,354.251678 
	C320.747437,352.358765 320.841919,350.904388 320.949829,349.243408 
	C325.916779,348.518433 325.803314,353.210083 327.973541,355.220490 
	C326.644196,356.483887 325.314819,357.747284 323.985474,359.010681 
	C323.747894,358.797119 323.510315,358.583557 323.272736,358.369995 
	C322.983582,359.882904 322.694427,361.395813 322.405273,362.908722 
	C321.821014,362.902893 321.236755,362.897064 320.652496,362.891205 
	C320.652496,360.157532 320.652496,357.423859 320.652710,354.251678 
z"/>
<path fill="#B19165" opacity="1.000000" stroke="none" 
	d="
M259.920227,264.035156 
	C260.013336,270.105469 264.078644,269.051910 268.480530,268.453491 
	C265.334747,272.582886 262.502716,272.411591 259.618805,269.978485 
	C256.361603,267.230499 256.378906,261.202026 259.466400,258.286530 
	C261.862030,256.024384 264.914795,256.333435 267.607239,259.639587 
	C263.619568,258.823120 260.021820,258.457306 259.920227,264.035156 
z"/>
<path fill="#C9A167" opacity="1.000000" stroke="none" 
	d="
M322.065491,271.220398 
	C320.723480,270.798126 318.946899,270.426514 318.919800,269.954498 
	C318.694519,266.030334 318.792084,262.087616 318.792084,258.150513 
	C319.238434,258.153229 319.684814,258.155945 320.131165,258.158661 
	C320.131165,259.463409 320.131165,260.768158 320.131165,262.323090 
	C322.139923,262.675629 323.970917,262.996979 325.801880,263.318329 
	C325.820374,263.639069 325.838867,263.959808 325.857361,264.280579 
	C324.585663,264.538330 323.084534,264.470642 322.113586,265.155060 
	C321.311127,265.720703 321.135162,267.175171 320.524780,268.602570 
	C323.167023,269.009644 325.121552,269.310730 327.076050,269.611847 
	C327.052704,270.043030 327.029358,270.474243 327.006012,270.905457 
	C325.484619,271.011810 323.963196,271.118195 322.065491,271.220398 
z"/>
<path fill="#B99665" opacity="1.000000" stroke="none" 
	d="
M346.812683,315.334351 
	C346.874695,315.698730 346.894623,315.538544 346.916260,315.503784 
	C341.735870,319.615509 337.812134,317.609375 336.686768,309.820251 
	C336.799744,309.213928 336.844208,308.980164 336.950928,308.394897 
	C339.046570,302.342407 342.189545,301.244141 347.111786,305.135162 
	C345.755951,305.135162 344.892365,304.960266 344.137634,305.172546 
	C342.684326,305.581207 340.347565,305.912750 340.067627,306.806030 
	C339.441132,308.805237 339.420929,311.260986 340.032471,313.262299 
	C340.312164,314.177521 342.635498,314.573090 344.094269,314.982147 
	C344.914124,315.212006 345.861023,314.988983 346.812683,315.334351 
z"/>
<path fill="#A48964" opacity="1.000000" stroke="none" 
	d="
M373.747192,362.834930 
	C372.932129,360.549469 372.305847,358.187195 372.061035,355.786041 
	C371.796112,353.187561 372.816803,349.940643 366.999512,351.110016 
	C367.441040,350.594666 367.882568,350.079285 368.324066,349.563904 
	C371.686005,349.563904 375.047913,349.563904 377.149200,349.563904 
	C376.373505,351.920807 375.461548,354.186676 374.904999,356.536774 
	C374.427094,358.554871 374.355347,360.669220 373.747192,362.834930 
z"/>
<path fill="#D3A667" opacity="1.000000" stroke="none" 
	d="
M288.172668,315.914124 
	C289.676788,315.957275 290.782990,315.957275 291.889221,315.957275 
	C291.894257,316.249908 291.899323,316.542572 291.904388,316.835205 
	C289.466431,316.835205 287.028442,316.835205 284.282440,316.835205 
	C284.282440,312.369110 284.282440,307.974579 284.282440,303.397644 
	C287.169281,303.397644 289.836670,303.397644 292.504028,303.397644 
	C292.550964,303.768921 292.597900,304.140228 292.644836,304.511505 
	C290.694427,304.727600 288.744019,304.943726 286.748657,305.164795 
	C284.060913,310.253143 290.010620,307.805634 291.204163,310.330597 
	C289.530182,310.698853 288.078674,311.018188 285.597565,311.564026 
	C286.387146,313.126007 287.080963,314.498474 288.172668,315.914124 
z"/>
<path fill="#C9A167" opacity="1.000000" stroke="none" 
	d="
M287.745544,351.735962 
	C287.813446,351.297394 287.913116,350.818909 287.923950,350.574799 
	C288.539062,351.559845 289.143280,352.789001 289.970612,354.471954 
	C291.164429,354.685211 292.989471,355.011230 295.173767,355.401428 
	C293.004944,356.865692 291.244385,358.054291 289.483856,359.242889 
	C289.741211,359.740875 289.998535,360.238861 290.255890,360.736847 
	C292.126251,360.987762 293.996613,361.238678 295.866974,361.489563 
	C295.893311,361.908905 295.919647,362.328217 295.945984,362.747528 
	C293.457123,362.931671 290.968262,363.115784 287.677643,363.359222 
	C287.677643,359.305634 287.677643,355.740082 287.745544,351.735962 
z"/>
<path fill="#A48964" opacity="1.000000" stroke="none" 
	d="
M334.931732,356.136414 
	C334.402039,358.386200 333.872375,360.635956 333.285583,363.128204 
	C330.418762,359.260132 330.692535,352.195129 333.735596,350.062439 
	C333.931458,349.925354 333.928528,349.955048 333.928528,349.955048 
	C334.566681,351.091370 335.204834,352.227692 335.711060,353.942108 
	C335.363342,355.058929 335.147522,355.597656 334.931732,356.136414 
z"/>
<path fill="#22365D" opacity="1.000000" stroke="none" 
	d="
M361.966797,260.008972 
	C364.536346,262.644592 366.863708,265.265167 369.697357,268.455811 
	C366.743195,268.790009 364.476074,269.046509 362.118652,269.646118 
	C362.028351,269.989227 361.707520,270.020782 361.546326,270.019348 
	C357.310760,267.024261 360.531067,263.860199 361.204132,260.369568 
	C361.239471,259.982635 361.724640,259.993927 361.966797,260.008972 
z"/>
<path fill="#B79565" opacity="1.000000" stroke="none" 
	d="
M299.241119,263.744476 
	C298.757568,264.476501 298.008362,265.154510 297.846191,265.951904 
	C297.515228,267.578857 297.500366,269.270111 297.355316,270.934875 
	C296.870789,270.922821 296.386230,270.910797 295.901672,270.898773 
	C295.901672,266.364655 295.901672,261.830536 295.901672,257.296417 
	C296.229156,257.086060 296.556641,256.875702 296.884094,256.665314 
	C298.056549,258.380554 299.228973,260.095795 300.189514,262.452057 
	C299.732117,263.310242 299.486633,263.527344 299.241119,263.744476 
M297.507233,261.470825 
	C297.507233,261.470825 297.531860,261.531281 297.507233,261.470825 
z"/>
<path fill="#C9A167" opacity="1.000000" stroke="none" 
	d="
M318.818268,285.424347 
	C317.796844,283.555206 316.777161,282.121368 315.690277,280.593048 
	C318.190735,280.593048 321.400177,280.593048 326.139252,280.593048 
	C317.264496,282.843750 322.976837,289.885712 320.254456,293.897614 
	C319.776306,293.873322 319.298187,293.848999 318.820038,293.824707 
	C318.820038,291.169708 318.820038,288.514679 318.818268,285.424347 
z"/>
<path fill="#B79565" opacity="1.000000" stroke="none" 
	d="
M339.457092,353.536652 
	C340.269135,351.915924 341.081177,350.295197 341.893188,348.674469 
	C342.309723,348.883331 342.726227,349.092163 343.142761,349.301025 
	C343.142761,353.867493 343.142761,358.433929 343.142761,363.000397 
	C342.651184,363.017426 342.159576,363.034454 341.667999,363.051483 
	C341.541199,361.243011 341.414398,359.434540 341.422607,356.985229 
	C341.048340,355.575867 340.538971,354.807343 339.886719,353.913025 
	C339.743774,353.787231 339.457062,353.536652 339.457092,353.536652 
z"/>
<path fill="#C9A167" opacity="1.000000" stroke="none" 
	d="
M334.655518,269.135559 
	C335.632324,269.363098 336.183136,269.572876 336.733978,269.782684 
	C336.721130,270.136261 336.708313,270.489838 336.695496,270.843414 
	C334.321228,270.972992 331.946991,271.102570 329.405090,271.241272 
	C329.405090,266.241821 329.405090,261.788818 329.405090,257.335846 
	C329.954895,257.309326 330.504700,257.282806 331.054504,257.256287 
	C331.054504,260.018829 331.155151,262.786133 331.023865,265.542419 
	C330.910980,267.912476 331.429230,269.474060 334.655518,269.135559 
z"/>
<path fill="#C9A167" opacity="1.000000" stroke="none" 
	d="
M300.045044,352.336060 
	C300.048492,355.405182 300.048492,358.020081 300.048492,360.624725 
	C302.261230,361.007111 303.966248,361.301758 305.671295,361.596405 
	C305.683319,361.984924 305.695343,362.373444 305.707367,362.761963 
	C303.361694,362.933838 301.016022,363.105713 298.312744,363.303772 
	C298.312744,358.334381 298.312744,353.837585 298.312744,349.340820 
	C298.615540,349.280701 298.918335,349.220581 299.221100,349.160461 
	C299.494598,350.067566 299.768097,350.974701 300.045044,352.336060 
z"/>
<path fill="#9C8364" opacity="1.000000" stroke="none" 
	d="
M302.054138,264.900787 
	C302.727020,262.285889 303.399902,259.670959 304.072784,257.056061 
	C304.687073,257.079437 305.301331,257.102814 305.915619,257.126190 
	C305.915619,260.135986 305.915619,263.145752 305.477509,266.590271 
	C303.864838,266.795197 302.690308,266.565338 301.515747,266.335510 
	C301.515747,266.335510 301.357513,266.553406 301.510925,266.117218 
	C301.794250,265.420959 301.924194,265.160889 302.054138,264.900787 
z"/>
<path fill="#B79565" opacity="1.000000" stroke="none" 
	d="
M334.974854,356.483826 
	C335.147522,355.597656 335.363342,355.058929 335.742493,354.279419 
	C336.389008,355.040741 336.872192,356.042847 337.567566,357.484955 
	C338.185852,356.161926 338.673157,355.119171 339.308777,353.806519 
	C339.457062,353.536652 339.743774,353.787231 339.883362,354.283325 
	C340.016937,355.523346 340.010956,356.267242 340.004974,357.011169 
	C339.434143,358.610840 338.863281,360.210480 338.292450,361.810150 
	C337.892120,361.832336 337.491760,361.854492 337.091431,361.876648 
	C336.400269,360.194855 335.709137,358.513062 334.974854,356.483826 
z"/>
<path fill="#9C8364" opacity="1.000000" stroke="none" 
	d="
M305.757172,268.951233 
	C305.340912,271.495392 305.340912,271.495392 302.614197,269.259460 
	C303.840088,268.992737 304.798645,268.971985 305.757172,268.951233 
z"/>
<path fill="#B79565" opacity="1.000000" stroke="none" 
	d="
M305.798828,268.635468 
	C304.798645,268.971985 303.840088,268.992737 302.522522,268.988617 
	C301.842560,268.305664 301.521606,267.647552 301.358215,266.662476 
	C302.690308,266.565338 303.864838,266.795197 305.396271,267.038208 
	C305.782257,267.474152 305.811371,267.896912 305.798828,268.635468 
z"/>
<path fill="#B79565" opacity="1.000000" stroke="none" 
	d="
M301.973022,264.630615 
	C301.924194,265.160889 301.794250,265.420959 301.401733,266.038422 
	C300.561859,265.702332 299.984558,265.008881 299.324188,264.029938 
	C299.486633,263.527344 299.732117,263.310242 300.346558,262.768250 
	C301.107666,263.082428 301.499786,263.721436 301.973022,264.630615 
z"/>
<path fill="#A48964" opacity="1.000000" stroke="none" 
	d="
M340.343781,356.913635 
	C340.010956,356.267242 340.016937,355.523346 340.026276,354.409119 
	C340.538971,354.807343 341.048340,355.575867 341.472565,356.588745 
	C341.152466,356.827454 340.917511,356.821777 340.343781,356.913635 
z"/>
<path fill="#C9A167" opacity="1.000000" stroke="none" 
	d="
M274.511108,349.224487 
	C274.947449,349.450348 274.923279,349.709076 274.872803,350.356934 
	C274.581146,350.249786 274.315857,349.753571 274.511108,349.224487 
z"/>
<path fill="#A48964" opacity="1.000000" stroke="none" 
	d="
M333.934631,349.904144 
	C333.937836,349.882935 334.122681,349.793732 334.122681,349.793732 
	C334.122681,349.793732 333.841797,349.784973 333.885162,349.869995 
	C333.928528,349.955048 333.931458,349.925354 333.934631,349.904144 
z"/>
<path fill="#B59365" opacity="1.000000" stroke="none" 
	d="
M326.753723,303.167236 
	C326.827728,303.350037 326.660522,303.536102 326.342712,303.837921 
	C326.091370,303.613678 326.198181,303.352600 326.753723,303.167236 
z"/>
<path fill="#B59365" opacity="1.000000" stroke="none" 
	d="
M305.761719,303.180664 
	C305.845734,303.373901 305.682678,303.560242 305.362976,303.854248 
	C305.096710,303.624084 305.199463,303.361359 305.761719,303.180664 
z"/>
<path fill="#1D335D" opacity="1.000000" stroke="none" 
	d="
M225.748901,222.962479 
	C223.808640,223.474442 222.225906,223.788132 220.290527,224.171722 
	C220.290527,218.355194 220.290527,212.969528 220.290527,207.206909 
	C223.633942,206.858978 226.804245,207.187363 228.195389,210.560028 
	C229.976562,214.878235 230.145950,219.273270 225.748901,222.962479 
z"/>
<path fill="#22365D" opacity="1.000000" stroke="none" 
	d="
M258.823059,219.623260 
	C257.022369,223.224335 254.364746,224.358871 250.131287,223.636414 
	C250.131287,220.956802 250.131287,218.206604 250.131287,215.456406 
	C250.131287,212.823593 250.131287,210.190796 250.131287,207.619003 
	C257.961121,206.589279 260.629089,210.306503 258.823059,219.623260 
z"/>
<path fill="#B59365" opacity="1.000000" stroke="none" 
	d="
M319.407410,311.024200 
	C319.811523,310.830414 320.199524,310.785706 320.587524,310.741028 
	C320.575073,310.888123 320.570160,311.162262 320.549011,311.163513 
	C320.164276,311.186310 319.777588,311.176331 319.407410,311.024200 
z"/>
<path fill="#1D335D" opacity="1.000000" stroke="none" 
	d="
M324.860291,337.833191 
	C324.217529,334.645569 323.985260,331.585571 323.752991,328.525574 
	C324.274628,328.206024 324.796295,327.886444 325.317932,327.566864 
	C326.588135,328.975525 328.564789,330.207336 328.971619,331.832184 
	C329.673553,334.635437 329.281372,337.609009 324.860291,337.833191 
z"/>
<path fill="#1D335D" opacity="1.000000" stroke="none" 
	d="
M273.437622,259.223328 
	C277.935638,259.896667 279.966736,264.803558 277.285004,267.829712 
	C275.216583,270.163788 272.503448,269.616516 271.854065,266.982483 
	C271.287384,264.684052 272.586060,261.925751 273.437622,259.223328 
z"/>
<path fill="#1D335D" opacity="1.000000" stroke="none" 
	d="
M313.850586,360.956207 
	C308.847412,360.901428 308.562225,357.646698 309.277283,354.431488 
	C309.574066,353.096924 311.534607,351.296509 312.782715,351.261047 
	C313.876831,351.229919 315.913940,353.335358 315.963806,354.560944 
	C316.047668,356.623474 314.886749,358.736603 313.850586,360.956207 
z"/>
<path fill="#1D335D" opacity="1.000000" stroke="none" 
	d="
M343.225555,269.074677 
	C342.283600,268.646362 341.582825,268.379303 341.253601,267.871399 
	C339.313812,264.878876 339.121429,261.767670 342.136963,259.563171 
	C342.933228,258.981079 345.787201,259.846771 346.579620,260.893219 
	C348.622498,263.590973 346.983429,267.552551 343.225555,269.074677 
z"/>
<path fill="#1D335D" opacity="1.000000" stroke="none" 
	d="
M257.085388,353.406860 
	C258.543854,349.120575 260.587372,351.028351 261.966339,352.767670 
	C264.675110,356.184296 262.504333,360.315460 257.074249,360.979553 
	C257.074249,358.559387 257.074249,356.198486 257.085388,353.406860 
z"/>
<path fill="#9C8364" opacity="1.000000" stroke="none" 
	d="
M297.519531,261.501038 
	C297.531860,261.531281 297.507233,261.470825 297.519531,261.501038 
z"/>
</svg>